PathFileType	4	(X/Y/Z)	5_coords_data.trc
DataRate	CameraRate	NumFrames	NumMarkers	Units	OrigDataRate	OrigDataStartFrame	OrigNumFrames
30.0	30.0	9	21	m	30.0	29	57
Frame#	Time	THUMB_TIP	THUMB_IP	THUMB_MCP	THUMB_CMC	INDEX_TIP	INDEX_DIP	INDEX_PIP	INDEX_MCP	MIDDLE_TIP	MIDDLE_DIP	MIDDLE_PIP	MIDDLE_MCP	RING_TIP	RING_DIP	RING_PIP	RING_MCP	PINKY_TIP	PINKY_DIP	PINKY_PIP	PINKY_MCP	WRIST
X1	Y1	Z1	X2	Y2	Z2	X3	Y3	Z3	X4	Y4	Z4	X5	Y5	Z5	X6	Y6	Z6	X7	Y7	Z7	X8	Y8	Z8	X9	Y9	Z9	X10	Y10	Z10	X11	Y11	Z11	X12	Y12	Z12	X13	Y13	Z13	X14	Y14	Z14	X15	Y15	Z15	X16	Y16	Z16	X17	Y17	Z17	X18	Y18	Z18	X19	Y19	Z19	X20	Y20	Z20	X21	Y21	Z21
28	0.9333333333333333	-0.006976339817047119	-0.15092500305175782	1.0639200439453125	-0.011960200309753418	-0.12625599670410156	1.0571300048828125	-0.031732900619506836	-0.10371800231933594	1.05956005859375	-0.03834659957885742	-0.06906569671630859	1.059550048828125	-0.007288790225982666	-0.13172900390625	0.9391690063476562	-0.016987699508666992	-0.12171199798583984	0.9568300170898437	-0.02689979934692383	-0.11096600341796875	0.9747869873046875	-0.03728559875488281	-0.09059619903564453	1.0048599853515625	-0.015688899993896485	-0.08486530303955078	0.90835498046875	-0.022962799072265627	-0.08296530151367187	0.9322659912109375	-0.03220270156860352	-0.07924539947509765	0.96022802734375	-0.04005049896240234	-0.07126360321044922	0.99777099609375	-0.023764799118041992	-0.05353300094604492	0.9105770263671875	-0.02569879913330078	-0.0528025016784668	0.9350250244140625	-0.030493999481201173	-0.052217399597167966	0.9617080078125	-0.03547909927368164	-0.052028900146484376	0.9974140014648437	-0.017125499725341796	-0.013051899909973144	0.9412689819335938	-0.02038279914855957	-0.019888399124145507	0.9603560180664062	-0.0245403995513916	-0.02626740074157715	0.977344970703125	-0.030067300796508788	-0.03513970184326172	1.0014500122070313	-0.0584807014465332	-0.03899380111694336	1.069969970703125
29	0.9666666666666667	-0.006857979774475098	-0.15105299377441406	1.06406005859375	-0.011927900314331054	-0.12634400177001953	1.0573299560546876	-0.03165220069885254	-0.1039229965209961	1.059699951171875	-0.03831809997558594	-0.06908799743652344	1.0597099609375	-0.007318540096282959	-0.13191200256347657	0.9394030151367188	-0.017030799865722656	-0.12187799835205078	0.95706201171875	-0.026913000106811524	-0.11113899993896484	0.9750139770507813	-0.03739459991455078	-0.0907333984375	1.0051300048828125	-0.015458999633789062	-0.08515489959716797	0.9086439819335937	-0.02279990005493164	-0.08323290252685547	0.932530029296875	-0.03215729904174805	-0.0794761962890625	0.960406982421875	-0.04017839813232422	-0.07143060302734375	0.9980029907226563	-0.023197999954223635	-0.05345339965820312	0.91093701171875	-0.02530380058288574	-0.052799400329589845	0.9353740234375	-0.030304500579833984	-0.05227239990234375	0.9619600219726563	-0.03551729965209961	-0.0521963005065918	0.997625	-0.017109600067138672	-0.0132677001953125	0.9414580078125	-0.02036639976501465	-0.020090099334716796	0.9605460205078125	-0.024528699874877928	-0.026440099716186525	0.9775579833984375	-0.03012700080871582	-0.03529230117797852	1.0016500244140625	-0.05848509979248047	-0.03916669845581055	1.0700999755859375
30	1.0	-0.007137499809265137	-0.15134199523925781	1.064219970703125	-0.012177599906921386	-0.12651000213623048	1.05756005859375	-0.03182259941101074	-0.10413300323486328	1.0599100341796874	-0.0384635009765625	-0.0692688980102539	1.059969970703125	-0.0074855899810791025	-0.1319949951171875	0.9395819702148438	-0.017190799713134766	-0.12205999755859374	0.9572260131835938	-0.027097400665283204	-0.11125800323486328	0.9752509765625	-0.037622600555419924	-0.0908697967529297	1.0055	-0.015168600082397461	-0.08536129760742188	0.909052978515625	-0.022661399841308594	-0.0834136962890625	0.9328939819335937	-0.03209690093994141	-0.07961139678955079	0.9606900024414062	-0.04036209869384766	-0.07162210083007813	0.9982360229492188	-0.02224370002746582	-0.05310430145263672	0.9113400268554688	-0.024570600509643555	-0.05260860061645508	0.9358280029296875	-0.02981660079956055	-0.05220709991455078	0.9623140258789062	-0.03547269821166992	-0.05235979843139649	0.9979329833984375	-0.01672130012512207	-0.013408800125122071	0.9417050170898438	-0.020086999893188476	-0.02027120018005371	0.9608720092773437	-0.024229999542236327	-0.026646499633789063	0.9778259887695312	-0.030034299850463866	-0.035501899719238283	1.0019600219726563	-0.05870500183105469	-0.03918389892578125	1.070469970703125
31	1.0333333333333334	-0.007640620231628418	-0.15164700317382812	1.0644200439453124	-0.012574199676513673	-0.1268730010986328	1.05777001953125	-0.032261798858642575	-0.1043219985961914	1.060199951171875	-0.038621700286865235	-0.06956430053710938	1.060239990234375	-0.0074659700393676755	-0.13207499694824218	0.9398460083007812	-0.017211999893188477	-0.1221510009765625	0.9574569702148438	-0.027152799606323243	-0.11137100219726563	0.9754520263671875	-0.037666900634765625	-0.09098560333251954	1.0057000122070312	-0.014628800392150879	-0.08540119934082031	0.9094829711914062	-0.02225230026245117	-0.08347489929199219	0.9332769775390625	-0.0318218994140625	-0.07970089721679688	0.9609920043945313	-0.040339801788330076	-0.07167739868164062	0.998583984375	-0.021157699584960936	-0.052564998626708985	0.9118759765625	-0.023585500717163085	-0.05226679992675781	0.9362899780273437	-0.029093799591064454	-0.052077598571777343	0.9626630249023438	-0.03538339996337891	-0.05247650146484375	0.9982529907226563	-0.016202299118041993	-0.013530799865722656	0.9423619995117187	-0.019622699737548828	-0.020386199951171875	0.9614210205078125	-0.023872299194335936	-0.02678730010986328	0.9782789916992187	-0.029858200073242188	-0.0356442985534668	1.0023699951171876	-0.05881050109863281	-0.03937649917602539	1.070760009765625
32	1.0666666666666667	-0.007443930149078369	-0.15172599792480468	1.0645	-0.012469099998474122	-0.12691600036621092	1.0579200439453125	-0.032147998809814456	-0.10447200012207031	1.0604000244140626	-0.03861050033569336	-0.069622802734375	1.060530029296875	-0.007422490119934082	-0.13220500183105469	0.9401119995117188	-0.017199899673461912	-0.1222259979248047	0.9577150268554687	-0.027149499893188475	-0.11151100158691406	0.9757039794921875	-0.037683399200439456	-0.09120909881591797	1.0058800048828125	-0.014501500129699706	-0.08571520233154296	0.909802001953125	-0.022175899505615236	-0.0837313003540039	0.933572021484375	-0.031768999099731444	-0.07990959930419922	0.9612680053710938	-0.040365501403808596	-0.07180950164794922	0.9988900146484375	-0.02084869956970215	-0.05244369888305664	0.9122050170898437	-0.023320499420166015	-0.05223189926147461	0.9366439819335938	-0.028896400451660156	-0.052159400939941404	0.9630079956054688	-0.035421798706054684	-0.05266640090942383	0.9985040283203125	-0.01629789924621582	-0.013702099800109863	0.94256298828125	-0.01970949935913086	-0.02058009910583496	0.961656982421875	-0.024019399642944337	-0.0269862003326416	0.9785759887695312	-0.029962299346923828	-0.035799198150634766	1.0026799926757812	-0.05876549911499023	-0.03952239990234375	1.0709200439453126
33	1.1	-0.0075598001480102536	-0.1519600067138672	1.0646700439453125	-0.012560899734497071	-0.12708599853515626	1.0581600341796875	-0.03222480010986328	-0.10463700103759765	1.0606199951171875	-0.03874290084838867	-0.06975019836425782	1.06072998046875	-0.007614069938659668	-0.13249600219726562	0.9403800048828125	-0.017349000930786132	-0.12258399963378906	0.9579140014648437	-0.027287200927734376	-0.11178199768066406	0.9759219970703125	-0.037789100646972655	-0.09142120361328125	1.0061199951171875	-0.01467490005493164	-0.08609420013427735	0.910051025390625	-0.02231380081176758	-0.08407890319824218	0.9338209838867187	-0.03189590072631836	-0.08021980285644531	0.961447998046875	-0.04059130096435547	-0.07214459991455079	0.9989749755859375	-0.021016899108886718	-0.05278659820556641	0.9123569946289063	-0.023451999664306642	-0.05255490112304687	0.9367760009765626	-0.029023300170898436	-0.05240309906005859	0.963114013671875	-0.035596500396728514	-0.05286539840698242	0.9987260131835938	-0.01665530014038086	-0.014061200141906737	0.9426339721679687	-0.02000550079345703	-0.02088909912109375	0.9617340087890625	-0.02426740074157715	-0.027224899291992188	0.97864599609375	-0.030064599990844727	-0.0360438003540039	1.002739990234375	-0.058920299530029294	-0.039703399658203124	1.0711800537109375
34	1.1333333333333333	-0.007689889907836914	-0.1521230010986328	1.065	-0.012765299797058106	-0.1273219985961914	1.0584300537109375	-0.03236130142211914	-0.10494499969482422	1.0608199462890624	-0.038855701446533206	-0.07003839874267578	1.0609200439453126	-0.007822720050811768	-0.13284100341796876	0.9406199951171875	-0.017503099441528322	-0.12289900207519532	0.9582039794921875	-0.027443199157714843	-0.11208599853515624	0.9762249755859375	-0.038011398315429684	-0.09172480010986328	1.00652001953125	-0.014818300247192382	-0.08644760131835938	0.9102780151367188	-0.022433700561523436	-0.08440910339355469	0.93410498046875	-0.03204819869995117	-0.08056069946289063	0.9617109985351563	-0.040719398498535155	-0.07247440338134765	0.9992730102539062	-0.02111440086364746	-0.05303300094604492	0.912593994140625	-0.02351810073852539	-0.052813499450683594	0.9370349731445312	-0.029113199234008787	-0.05268349838256836	0.9634169921875	-0.03566719818115234	-0.05318970108032227	0.9989769897460937	-0.016762399673461915	-0.014398900032043457	0.9428499755859375	-0.020057199478149414	-0.021242399215698243	0.961916015625	-0.02423900032043457	-0.02757929992675781	0.9788380126953125	-0.030138599395751954	-0.03636920166015625	1.0029400024414064	-0.05914390182495117	-0.03994329833984375	1.0713800048828126
35	1.1666666666666667	-0.0079651198387146	-0.15243699645996095	1.065050048828125	-0.012862500190734863	-0.1276699981689453	1.058510009765625	-0.032580299377441405	-0.10520099639892579	1.061010009765625	-0.03902479934692383	-0.07034190368652343	1.0611700439453124	-0.008046250343322753	-0.13312300109863281	0.9408389892578125	-0.017771400451660157	-0.12319100189208984	0.9583880004882812	-0.02764349937438965	-0.11238300323486328	0.9764019775390625	-0.03813610076904297	-0.09205609893798829	1.00652001953125	-0.014920599937438965	-0.08671360015869141	0.9105399780273438	-0.022572399139404297	-0.0846863021850586	0.934323974609375	-0.03224290084838867	-0.08084290313720703	0.9619730224609375	-0.0408838996887207	-0.07272499847412109	0.9993720092773437	-0.02104199981689453	-0.05309569931030273	0.9128839721679688	-0.023514299392700194	-0.052961399078369144	0.9373099975585938	-0.02916279983520508	-0.05289860153198242	0.96364697265625	-0.03587929916381836	-0.05345909881591797	0.9991810302734375	-0.016874200820922853	-0.014727899551391602	0.9431010131835937	-0.02013710021972656	-0.021557199478149415	0.9621950073242187	-0.024426200866699218	-0.027901599884033203	0.9791209716796875	-0.03030430030822754	-0.03663050079345703	1.0032100219726563	-0.05922119903564453	-0.04020349884033203	1.071510009765625
36	1.2	-0.00808784008026123	-0.15266200256347656	1.0649200439453126	-0.013186200141906738	-0.1279020004272461	1.0585400390625	-0.032751201629638675	-0.10547799682617187	1.0610699462890625	-0.0392947006225586	-0.07070899963378906	1.061300048828125	-0.00830860996246338	-0.1332760009765625	0.9409710083007813	-0.018030500411987303	-0.12335099792480468	0.95852001953125	-0.027947200775146484	-0.11253700256347657	0.976552001953125	-0.03853189849853516	-0.09227189636230469	1.0067100219726564	-0.015155500411987304	-0.08697579956054688	0.9107429809570312	-0.022836200714111327	-0.08493319702148437	0.9345189819335937	-0.03251959991455078	-0.08108580017089843	0.962155029296875	-0.041285999298095705	-0.07293540191650391	0.999583984375	-0.021277000427246093	-0.053366100311279294	0.9130499877929688	-0.023746500015258788	-0.05321390151977539	0.9374970092773437	-0.02942460060119629	-0.05315650177001953	0.96385302734375	-0.03621200180053711	-0.05370230102539063	0.9993250122070313	-0.017134899139404296	-0.01499429988861084	0.9432449951171875	-0.020436899185180664	-0.02183219909667969	0.9623070068359375	-0.02466819953918457	-0.02817569923400879	0.9792269897460938	-0.030650800704956054	-0.03686349868774414	1.0033400268554689	-0.05943030166625977	-0.040499198913574216	1.0716500244140625
